<svg width="30" height="29" viewBox="0 0 30 29" fill="none" xmlns="http://www.w3.org/2000/svg">
<g filter="url(#filter0_d_90_123)">
<path d="M14.0194 0.701559C14.3232 -0.233544 15.6461 -0.233545 15.95 0.701558L17.8331 6.49728C17.969 6.91547 18.3587 7.19861 18.7984 7.19861H24.8924C25.8756 7.19861 26.2844 8.45678 25.489 9.0347L20.5589 12.6167C20.2031 12.8751 20.0543 13.3332 20.1901 13.7514L22.0733 19.5471C22.3771 20.4823 21.3069 21.2598 20.5114 20.6819L15.5813 17.1C15.2255 16.8415 14.7438 16.8415 14.3881 17.1L9.45797 20.6819C8.66252 21.2598 7.59226 20.4823 7.89609 19.5472L9.77923 13.7514C9.91511 13.3332 9.76626 12.8751 9.41052 12.6167L4.48039 9.03471C3.68495 8.45678 4.09375 7.19861 5.07697 7.19861H11.171C11.6107 7.19861 12.0004 6.91547 12.1362 6.49728L14.0194 0.701559Z" fill="#F2FF00"/>
</g>
<defs>
<filter id="filter0_d_90_123" x="0" y="0" width="29.9694" height="29" filterUnits="userSpaceOnUse" color-interpolation-filters="sRGB">
<feFlood flood-opacity="0" result="BackgroundImageFix"/>
<feColorMatrix in="SourceAlpha" type="matrix" values="0 0 0 0 0 0 0 0 0 0 0 0 0 0 0 0 0 0 127 0" result="hardAlpha"/>
<feOffset dy="4"/>
<feGaussianBlur stdDeviation="2"/>
<feComposite in2="hardAlpha" operator="out"/>
<feColorMatrix type="matrix" values="0 0 0 0 0 0 0 0 0 0 0 0 0 0 0 0 0 0 0.25 0"/>
<feBlend mode="normal" in2="BackgroundImageFix" result="effect1_dropShadow_90_123"/>
<feBlend mode="normal" in="SourceGraphic" in2="effect1_dropShadow_90_123" result="shape"/>
</filter>
</defs>
</svg>
