<svg width="6" height="11" viewBox="0 0 6 11" fill="none" xmlns="http://www.w3.org/2000/svg">
<path d="M5.92912 5.01902L4.91191 1.71477C4.83677 1.4709 4.70595 1.25151 4.53158 1.07695C4.35721 0.902379 4.14495 0.778283 3.91446 0.716165L1.40319 0.0366851C1.19372 -0.0201648 0.973574 -0.0107808 0.768883 0.0637235C0.564192 0.138228 0.383547 0.274725 0.248387 0.457015C0.113227 0.639306 0.0292244 0.859736 0.00634997 1.09215C-0.0165245 1.32456 0.0226889 1.5592 0.119336 1.76821L1.68676 5.15797C1.73592 5.26414 1.76151 5.38125 1.76151 5.5C1.76151 5.61875 1.73592 5.73586 1.68676 5.84203L0.120747 9.23179C0.0240996 9.4408 -0.0151138 9.67544 0.00776069 9.90785C0.0306352 10.1403 0.114637 10.3607 0.249798 10.543C0.384958 10.7253 0.565603 10.8618 0.770294 10.9363C0.974985 11.0108 1.19513 11.0202 1.4046 10.9633L3.91587 10.2838C4.1461 10.2215 4.35808 10.0973 4.53218 9.92274C4.70629 9.74819 4.83689 9.52892 4.91191 9.28523L5.92771 5.98251C6.0241 5.66929 6.0241 5.33071 5.92771 5.01749" fill="black"/>
</svg>
