<svg width="95" height="95" viewBox="0 0 95 95" fill="none" xmlns="http://www.w3.org/2000/svg">
<path d="M47.5 0C34.9022 0 22.8204 5.00445 13.9124 13.9124C5.00445 22.8204 0 34.9022 0 47.5C0 60.0978 5.00445 72.1796 13.9124 81.0876C22.8204 89.9955 34.9022 95 47.5 95C60.0978 95 72.1796 89.9955 81.0876 81.0876C89.9955 72.1796 95 60.0978 95 47.5C95 34.9022 89.9955 22.8204 81.0876 13.9124C72.1796 5.00445 60.0978 0 47.5 0ZM47.4762 13.5771C51.0134 13.5771 54.4058 14.982 56.9074 17.4828C59.4089 19.9836 60.8148 23.3755 60.8158 26.9127V35.6171L38.1108 22.519C37.2422 22.0173 36.3308 21.5934 35.3875 21.2523C36.4557 18.95 38.1622 17.0026 40.3044 15.6414C42.4465 14.2802 44.9343 13.5624 47.4723 13.5731L47.4762 13.5771ZM29.6717 23.8687C31.9992 23.8687 34.3029 24.4862 36.3375 25.6579L59.0346 38.764L47.5158 45.406L33.2658 37.1885C32.9895 37.0295 32.6762 36.9457 32.3574 36.9457C32.0385 36.9457 31.7253 37.0295 31.449 37.1885L21.1771 43.1181C20.3054 43.6104 19.4823 44.1843 18.719 44.8321C17.2616 42.758 16.4292 40.3097 16.3205 37.7771C16.2117 35.2445 16.8312 32.7339 18.1054 30.5425C19.283 28.5172 20.9703 26.8356 22.9994 25.6647C25.0286 24.4939 27.3289 23.8747 29.6717 23.8687ZM64.2002 23.9281C66.7245 23.7172 69.2567 24.2272 71.5025 25.3988C73.7484 26.5704 75.6154 28.3555 76.8867 30.5465C78.6507 33.6098 79.1267 37.2481 78.2101 40.6622C77.2935 44.0762 75.0593 46.9869 71.9981 48.7548L49.2931 61.849V48.5608L63.551 40.3394C63.8262 40.1787 64.0543 39.9486 64.2127 39.6722C64.371 39.3957 64.4541 39.0826 64.4535 38.764V26.9127C64.455 25.9124 64.3702 24.9139 64.2002 23.9281ZM30.5385 41.9108V68.1031C30.5385 69.1059 30.6256 70.1008 30.7998 71.0877C30.4247 71.1214 30.0482 71.1373 29.6717 71.1352C27.3303 71.1327 25.0305 70.5157 23.0023 69.3459C20.974 68.1762 19.2882 66.4947 18.1133 64.4694C17.2316 62.9562 16.6593 61.283 16.4296 59.5468C16.1999 57.8107 16.3175 56.0462 16.7754 54.3558C17.2238 52.6628 18.004 51.0758 19.0708 49.6868C20.1377 48.2979 21.4699 47.1348 22.99 46.265L30.5385 41.9108ZM34.1327 41.9108L45.6594 48.5608V64.9958C45.661 65.3139 45.7459 65.6259 45.9057 65.9009C46.0654 66.1759 46.2944 66.4043 46.5698 66.5633L56.8377 72.4929H56.8456C57.7165 72.9969 58.6242 73.4192 59.569 73.7596C58.499 76.0616 56.7908 78.0082 54.6472 79.368C52.5036 80.7278 50.0147 81.4438 47.4762 81.4308C43.9407 81.4287 40.5503 80.0244 38.0488 77.5259C35.5474 75.0274 34.139 71.6387 34.1327 68.1031V41.9108ZM76.2771 50.1758C77.7347 52.2507 78.5668 54.7 78.6748 57.2333C78.7829 59.7667 78.1623 62.2779 76.8867 64.4694C76.0106 65.9866 74.8443 67.3163 73.4543 68.3827C72.0643 69.4491 70.4778 70.2312 68.7855 70.6844C67.0932 71.1376 65.3282 71.2531 63.5913 71.0241C61.8544 70.7951 60.1795 70.2263 58.6625 69.35L51.11 64.9958L73.8229 51.8977C74.69 51.397 75.5113 50.8209 76.2771 50.1758Z" fill="black" fill-opacity="0.5"/>
</svg>
