<svg width="21" height="17" viewBox="0 0 21 17" fill="none" xmlns="http://www.w3.org/2000/svg">
<path d="M20.9099 2.01811C20.1267 2.36427 19.2963 2.59175 18.4461 2.69305C19.3413 2.15637 20.0112 1.31293 20.3314 0.31947C19.4903 0.820036 18.5681 1.17084 17.608 1.36061C16.9624 0.669844 16.1067 0.211728 15.1739 0.0574777C14.2411 -0.096773 13.2834 0.0614845 12.4498 0.507647C11.6162 0.953809 10.9534 1.66288 10.5643 2.52462C10.1753 3.38636 10.0818 4.35249 10.2985 5.27282C8.59259 5.18772 6.92364 4.74464 5.40013 3.97237C3.87662 3.2001 2.53265 2.11592 1.45554 0.790289C1.07435 1.44522 0.873991 2.18966 0.874965 2.94744C0.874965 4.43478 1.63299 5.74876 2.78286 6.51808C2.10196 6.49538 1.43615 6.31153 0.840089 5.98161V6.03392C0.840058 7.02467 1.18272 7.98492 1.80997 8.75182C2.43721 9.51872 3.31042 10.0451 4.28148 10.2415C3.64928 10.4132 2.98625 10.4385 2.34281 10.3154C2.61661 11.1682 3.1503 11.914 3.86913 12.4483C4.58795 12.9827 5.45592 13.2788 6.35144 13.2952C5.46129 13.9939 4.44222 14.5104 3.35243 14.8153C2.26264 15.1201 1.12348 15.2073 0 15.0718C1.96092 16.3329 4.24363 17.0024 6.57506 17.0002C14.4672 17.0002 18.7815 10.4631 18.7815 4.79379C18.7815 4.60847 18.7774 4.42349 18.7692 4.23886C19.6086 3.63193 20.3332 2.88028 20.9089 2.01914" fill="black"/>
</svg>
