<svg width="95" height="95" viewBox="0 0 95 95" fill="none" xmlns="http://www.w3.org/2000/svg">
<path fill-rule="evenodd" clip-rule="evenodd" d="M42.1898 0V25.983C39.0095 25.6608 35.8696 25.0203 32.8172 24.0713C28.4453 22.7479 24.3299 20.692 20.6462 17.9911C18.5206 16.414 16.6151 14.5603 14.9802 12.479C22.4733 5.50342 32.0145 1.12757 42.1898 0ZM52.8102 0V25.983C55.9905 25.6608 59.1304 25.0203 62.1828 24.0713C66.5546 22.7479 70.6701 20.692 74.3538 17.9911C76.4794 16.414 78.3849 14.5603 80.0198 12.479C72.5267 5.50342 62.9855 1.12757 52.8102 0ZM87.0453 20.6568C85.1796 22.7809 83.0732 24.7244 80.7261 26.4874C76.07 29.9174 70.8643 32.5302 65.3317 34.2138C61.2574 35.4728 57.0594 36.29 52.8102 36.6512V42.1898H95C94.1485 34.4681 91.4173 27.0729 87.0453 20.6515M95 52.8102H52.8102V58.3488C57.0903 58.7205 61.3066 59.533 65.3317 60.7862C70.8643 62.4698 76.07 65.0826 80.7261 68.5126C83.0732 70.2791 85.1796 72.2262 87.0453 74.3538C91.4181 67.9309 94.1494 60.5337 95 52.8102ZM80.0252 82.521C78.3885 80.4393 76.4812 78.5856 74.3538 77.0089C70.6701 74.308 66.5546 72.2521 62.1828 70.9287C59.1304 69.9797 55.9905 69.3392 52.8102 69.0171V95C62.9855 93.8724 72.532 89.4966 80.0252 82.521ZM42.1898 95V69.0171C38.9665 69.3516 35.8175 69.9941 32.8172 70.9287C28.4453 72.2521 24.3299 74.308 20.6462 77.0089C18.5206 78.5859 16.6151 80.4397 14.9802 82.521C22.4733 89.4966 32.0145 93.8724 42.1898 95ZM7.95472 74.3485C9.82038 72.2244 11.9268 70.2791 14.2739 68.5126C18.93 65.0826 24.1357 62.4698 29.6683 60.7862C33.7426 59.5272 37.9406 58.71 42.1898 58.3488V52.8102H0C0.851454 60.5319 3.58273 67.9271 7.95472 74.3485ZM0 42.1898H42.1898V36.6512C37.9097 36.2795 33.6934 35.467 29.6683 34.2138C24.1357 32.5302 18.93 29.9174 14.2739 26.4874C11.9682 24.7697 9.85007 22.8136 7.95472 20.6515C3.58461 27.0734 0.849862 34.4686 0 42.1898Z" fill="black" fill-opacity="0.5"/>
</svg>
