<svg width="95" height="95" viewBox="0 0 95 95" fill="none" xmlns="http://www.w3.org/2000/svg">
<path d="M38.6333 44.5312H56.3667C55.7923 35.8745 53.3767 27.44 49.2813 19.7917H45.7188C41.6233 27.44 39.2077 35.8745 38.6333 44.5312ZM32.7354 44.5312C33.1975 36.5026 35.1296 28.6269 38.4354 21.2958C33.4377 22.9912 29.028 26.0786 25.7252 30.1948C22.4225 34.311 20.3639 39.2849 19.7917 44.5312H32.7354ZM62.2646 44.5312H75.2083C74.649 39.3035 72.6138 34.3428 69.3406 30.2285C66.0674 26.1142 61.6911 23.016 56.7229 21.2958C59.9743 28.6373 61.8525 36.5126 62.2646 44.5312ZM62.2646 50.4688C61.8025 58.4974 59.8705 66.3731 56.5646 73.7042C61.5623 72.0088 65.972 68.9214 69.2747 64.8052C72.5775 60.6889 74.6361 55.7151 75.2083 50.4688H62.2646ZM32.7354 50.4688H19.7917C20.351 55.6965 22.3862 60.6572 25.6594 64.7715C28.9326 68.8858 33.3089 71.984 38.2771 73.7042C35.0257 66.3627 33.1475 58.4874 32.7354 50.4688ZM56.3667 50.4688H38.6333C39.2197 59.1234 41.6346 67.5554 45.7188 75.2083H49.2813C53.3767 67.56 55.7923 59.1255 56.3667 50.4688ZM47.5 0C46.3257 0 45.1777 0.348228 44.2013 1.00065C43.2249 1.65307 42.4639 2.58038 42.0145 3.66532C41.5651 4.75025 41.4475 5.94409 41.6766 7.09585C41.9057 8.24761 42.4712 9.30557 43.3016 10.1359C44.1319 10.9663 45.1899 11.5318 46.3417 11.7609C47.4934 11.99 48.6872 11.8724 49.7722 11.423C50.8571 10.9736 51.7844 10.2126 52.4369 9.2362C53.0893 8.25978 53.4375 7.11183 53.4375 5.9375C53.4375 4.36278 52.8119 2.85255 51.6984 1.73905C50.585 0.625556 49.0747 0 47.5 0ZM47.5 83.125C46.3257 83.125 45.1777 83.4732 44.2013 84.1256C43.2249 84.7781 42.4639 85.7054 42.0145 86.7903C41.5651 87.8753 41.4475 89.0691 41.6766 90.2208C41.9057 91.3726 42.4712 92.4306 43.3016 93.2609C44.1319 94.0913 45.1899 94.6568 46.3417 94.8859C47.4934 95.115 48.6872 94.9974 49.7722 94.548C50.8571 94.0986 51.7844 93.3376 52.4369 92.3612C53.0893 91.3848 53.4375 90.2368 53.4375 89.0625C53.4375 87.4878 52.8119 85.9776 51.6984 84.8641C50.585 83.7506 49.0747 83.125 47.5 83.125ZM81.1062 13.8937C80.2716 13.0548 79.2066 12.4825 78.0463 12.2494C76.8861 12.0163 75.6827 12.1329 74.5888 12.5844C73.4948 13.0358 72.5595 13.8019 71.9014 14.7855C71.2433 15.7691 70.8919 16.9259 70.8919 18.1094C70.8919 19.2928 71.2433 20.4496 71.9014 21.4332C72.5595 22.4168 73.4948 23.1829 74.5888 23.6344C75.6827 24.0859 76.8861 24.2025 78.0463 23.9694C79.2066 23.7363 80.2716 23.164 81.1062 22.325C82.211 21.2 82.83 19.6862 82.83 18.1094C82.83 16.5326 82.211 15.0188 81.1062 13.8937ZM22.325 72.675C21.4903 71.836 20.4254 71.2637 19.2651 71.0306C18.1048 70.7975 16.9015 70.9141 15.8075 71.3656C14.7136 71.8171 13.7783 72.5832 13.1201 73.5668C12.462 74.5503 12.1107 75.7072 12.1107 76.8906C12.1107 78.0741 12.462 79.2309 13.1201 80.2145C13.7783 81.1981 14.7136 81.9642 15.8075 82.4156C16.9015 82.8671 18.1048 82.9837 19.2651 82.7506C20.4254 82.5175 21.4903 81.9452 22.325 81.1062C23.4298 79.9812 24.0488 78.4674 24.0488 76.8906C24.0488 75.3138 23.4298 73.8 22.325 72.675ZM95 47.5C95 46.3257 94.6518 45.1777 93.9993 44.2013C93.3469 43.2249 92.4196 42.4639 91.3347 42.0145C90.2497 41.5651 89.0559 41.4475 87.9042 41.6766C86.7524 41.9057 85.6944 42.4712 84.8641 43.3016C84.0337 44.1319 83.4682 45.1899 83.2391 46.3416C83.01 47.4934 83.1276 48.6872 83.577 49.7722C84.0264 50.8571 84.7874 51.7844 85.7638 52.4369C86.7402 53.0893 87.8882 53.4375 89.0625 53.4375C90.6372 53.4375 92.1474 52.8119 93.2609 51.6984C94.3744 50.5849 95 49.0747 95 47.5ZM11.875 47.5C11.875 46.3257 11.5268 45.1777 10.8744 44.2013C10.2219 43.2249 9.29462 42.4639 8.20969 42.0145C7.12475 41.5651 5.93092 41.4475 4.77915 41.6766C3.62739 41.9057 2.56943 42.4712 1.73906 43.3016C0.908682 44.1319 0.34319 45.1899 0.11409 46.3416C-0.11501 47.4934 0.00257264 48.6872 0.451968 49.7722C0.901363 50.8571 1.66239 51.7844 2.6388 52.4369C3.61522 53.0893 4.76318 53.4375 5.9375 53.4375C7.51223 53.4375 9.02245 52.8119 10.1359 51.6984C11.2494 50.5849 11.875 49.0747 11.875 47.5ZM81.1062 81.1062C81.9452 80.2716 82.5175 79.2066 82.7506 78.0463C82.9837 76.8861 82.8671 75.6827 82.4156 74.5888C81.9642 73.4948 81.1981 72.5595 80.2145 71.9014C79.2309 71.2433 78.0741 70.8919 76.8906 70.8919C75.7072 70.8919 74.5503 71.2433 73.5668 71.9014C72.5832 72.5595 71.8171 73.4948 71.3656 74.5888C70.9141 75.6827 70.7975 76.8861 71.0306 78.0463C71.2637 79.2066 71.836 80.2716 72.675 81.1062C73.8 82.211 75.3138 82.83 76.8906 82.83C78.4674 82.83 79.9812 82.211 81.1062 81.1062ZM22.325 22.325C23.164 21.4903 23.7363 20.4254 23.9694 19.2651C24.2025 18.1048 24.0859 16.9015 23.6344 15.8075C23.1829 14.7136 22.4168 13.7783 21.4332 13.1201C20.4497 12.462 19.2928 12.1107 18.1094 12.1107C16.9259 12.1107 15.7691 12.462 14.7855 13.1201C13.8019 13.7783 13.0358 14.7136 12.5844 15.8075C12.1329 16.9015 12.0163 18.1048 12.2494 19.2651C12.4825 20.4254 13.0548 21.4903 13.8938 22.325C15.0188 23.4298 16.5326 24.0488 18.1094 24.0488C19.6862 24.0488 21.2 23.4298 22.325 22.325Z" fill="black" fill-opacity="0.5"/>
</svg>
