<svg width="95" height="95" viewBox="0 0 95 95" fill="none" xmlns="http://www.w3.org/2000/svg">
<path d="M60.8315 30.4615C59.3439 28.3493 57.3196 26.7706 55.0152 25.9256L49.065 23.7978C48.6082 23.6189 48.2129 23.2889 47.9334 22.8531C47.6538 22.4172 47.5038 21.8969 47.5038 21.3636C47.5038 20.8302 47.6538 20.3099 47.9334 19.874C48.2129 19.4382 48.6082 19.1082 49.065 18.9293L55.0152 16.8015C56.7759 16.1327 58.375 15.0314 59.691 13.5814C61.007 12.1313 62.0055 10.3705 62.6105 8.43259L62.658 8.2711L64.5924 1.73081C64.7533 1.22504 65.053 0.786766 65.4503 0.476671C65.8475 0.166577 66.3226 0 66.8097 0C67.2968 0 67.7719 0.166577 68.1691 0.476671C68.5664 0.786766 68.8662 1.22504 69.027 1.73081L70.9571 8.2711C71.5605 10.259 72.5766 12.065 73.925 13.5457C75.2734 15.0264 76.9169 16.1411 78.7251 16.8015L84.671 18.9293L84.7919 18.9626C85.2487 19.1415 85.644 19.4715 85.9235 19.9073C86.2031 20.3431 86.3531 20.8634 86.3531 21.3968C86.3531 21.9302 86.2031 22.4505 85.9235 22.8863C85.644 23.3221 85.2487 23.6521 84.7919 23.831L78.8417 25.9589C77.0343 26.6198 75.3916 27.7349 74.044 29.2155C72.6964 30.6962 71.6809 32.5018 71.078 34.4893L69.1436 41.0295L69.0874 41.191C68.9009 41.669 68.5875 42.0738 68.1884 42.3527C67.7892 42.6315 67.3228 42.7714 66.8502 42.7539C66.3777 42.7365 65.9209 42.5626 65.5396 42.2549C65.1583 41.9472 64.8704 41.5202 64.7133 41.0295L62.7789 34.4893C62.3468 33.0336 61.6895 31.6711 60.8358 30.4615M94.0626 48.515L90.755 47.3371C89.7514 46.968 88.8395 46.3472 88.0916 45.5237C87.3437 44.7001 86.7802 43.6965 86.4457 42.5922L85.3662 38.9634C85.2768 38.6829 85.1103 38.4398 84.8899 38.2678C84.6694 38.0959 84.4058 38.0035 84.1356 38.0035C83.8653 38.0035 83.6017 38.0959 83.3812 38.2678C83.1608 38.4398 82.9943 38.6829 82.9049 38.9634L81.8341 42.5922C81.5056 43.6894 80.9514 44.6885 80.2144 45.5115C79.4774 46.3345 78.5777 46.9593 77.5852 47.3371L74.282 48.515C74.0269 48.6134 73.8059 48.7964 73.6496 49.0389C73.4932 49.2814 73.4093 49.5714 73.4093 49.8687C73.4093 50.166 73.4932 50.4559 73.6496 50.6984C73.8059 50.9409 74.0269 51.124 74.282 51.2223L77.5852 52.405C78.5918 52.7743 79.5063 53.3967 80.2559 54.2229C81.0054 55.049 81.5695 56.0562 81.9032 57.1642L82.974 60.7929C83.0634 61.0735 83.2299 61.3165 83.4503 61.4885C83.6708 61.6605 83.9344 61.7528 84.2046 61.7528C84.4749 61.7528 84.7385 61.6605 84.959 61.4885C85.1794 61.3165 85.3458 61.0735 85.4352 60.7929L86.5104 57.1642C86.8454 56.0593 87.4096 55.0554 88.1582 54.2318C88.9069 53.4083 89.8196 52.7877 90.8241 52.4192L94.1273 51.2413C94.3824 51.143 94.6033 50.9599 94.7597 50.7174C94.916 50.4749 95 50.185 95 49.8877C95 49.5904 94.916 49.3004 94.7597 49.0579C94.6033 48.8154 94.3824 48.6324 94.1273 48.534L94.0626 48.515ZM43.4905 19.0053H14.0334C10.3115 19.0053 6.74205 20.6317 4.11028 23.5266C1.47851 26.4215 0 30.3478 0 34.4418V79.5636C0 83.6576 1.47851 87.5839 4.11028 90.4788C6.74205 93.3737 10.3115 95 14.0334 95H72.3259C74.1688 95 75.9937 94.6007 77.6963 93.825C79.3989 93.0492 80.9459 91.9122 82.249 90.4788C83.5521 89.0454 84.5858 87.3437 85.2911 85.4708C85.9963 83.598 86.3593 81.5907 86.3593 79.5636V66.1743C85.4669 66.6267 84.4815 66.8114 83.5033 66.7096C82.525 66.6079 81.5886 66.2233 80.7891 65.5948C79.8119 64.8297 79.073 63.7516 78.6733 62.5075L77.637 58.8978C77.5133 58.488 77.3066 58.1144 77.0325 57.8054C76.7565 57.5202 76.4343 57.2947 76.0826 57.1404L72.6713 55.953C71.5711 55.5228 70.6202 54.7258 69.951 53.6732C69.2685 52.638 68.9053 51.3896 68.9147 50.1109C68.9147 49.0084 69.1831 47.926 69.692 46.9761C68.7841 47.4889 67.7762 47.7498 66.7557 47.7361C65.3818 47.7314 64.0416 47.2676 62.9128 46.4062C61.772 45.4922 60.9131 44.2159 60.4515 42.7489L58.6811 35.8619C58.3901 34.9247 57.9676 34.0432 57.4289 33.2496L56.6517 32.7746C55.7709 31.8305 54.7084 31.1163 53.5428 30.6848L47.4976 28.4999C46.1924 27.8784 45.1028 26.813 44.3887 25.4601C43.8036 24.5297 43.4187 23.4649 43.2631 22.3466C43.1075 21.2283 43.1853 20.0857 43.4905 19.0053Z" fill="black" fill-opacity="0.5"/>
</svg>
